<svg id="visual" viewBox="0 0 900 600" width="900" height="600" xmlns="http://www.w3.org/2000/svg" xmlns:xlink="http://www.w3.org/1999/xlink" version="1.1"><rect x="0" y="0" width="900" height="600" fill="#2e3440"></rect><path d="M0 319L21.5 308.2C43 297.3 86 275.7 128.8 276.8C171.7 278 214.3 302 257.2 318C300 334 343 342 385.8 328.2C428.7 314.3 471.3 278.7 514.2 274.8C557 271 600 299 642.8 317.2C685.7 335.3 728.3 343.7 771.2 332.7C814 321.7 857 291.3 878.5 276.2L900 261L900 601L878.5 601C857 601 814 601 771.2 601C728.3 601 685.7 601 642.8 601C600 601 557 601 514.2 601C471.3 601 428.7 601 385.8 601C343 601 300 601 257.2 601C214.3 601 171.7 601 128.8 601C86 601 43 601 21.5 601L0 601Z" fill="#8ea7c5"></path><path d="M0 355L21.5 344.7C43 334.3 86 313.7 128.8 308.8C171.7 304 214.3 315 257.2 327.2C300 339.3 343 352.7 385.8 348.8C428.7 345 471.3 324 514.2 312.5C557 301 600 299 642.8 305.7C685.7 312.3 728.3 327.7 771.2 330C814 332.3 857 321.7 878.5 316.3L900 311L900 601L878.5 601C857 601 814 601 771.2 601C728.3 601 685.7 601 642.8 601C600 601 557 601 514.2 601C471.3 601 428.7 601 385.8 601C343 601 300 601 257.2 601C214.3 601 171.7 601 128.8 601C86 601 43 601 21.5 601L0 601Z" fill="#7e9abd"></path><path d="M0 387L21.5 380.3C43 373.7 86 360.3 128.8 354.8C171.7 349.3 214.3 351.7 257.2 349.7C300 347.7 343 341.3 385.8 340.2C428.7 339 471.3 343 514.2 351.3C557 359.7 600 372.3 642.8 371.3C685.7 370.3 728.3 355.7 771.2 358.8C814 362 857 383 878.5 393.5L900 404L900 601L878.5 601C857 601 814 601 771.2 601C728.3 601 685.7 601 642.8 601C600 601 557 601 514.2 601C471.3 601 428.7 601 385.8 601C343 601 300 601 257.2 601C214.3 601 171.7 601 128.8 601C86 601 43 601 21.5 601L0 601Z" fill="#6e8eb4"></path><path d="M0 441L21.5 436.5C43 432 86 423 128.8 418.2C171.7 413.3 214.3 412.7 257.2 410.2C300 407.7 343 403.3 385.8 403.2C428.7 403 471.3 407 514.2 406.5C557 406 600 401 642.8 403.2C685.7 405.3 728.3 414.7 771.2 412.5C814 410.3 857 396.7 878.5 389.8L900 383L900 601L878.5 601C857 601 814 601 771.2 601C728.3 601 685.7 601 642.8 601C600 601 557 601 514.2 601C471.3 601 428.7 601 385.8 601C343 601 300 601 257.2 601C214.3 601 171.7 601 128.8 601C86 601 43 601 21.5 601L0 601Z" fill="#5e81ac"></path><path d="M0 444L21.5 447.2C43 450.3 86 456.7 128.8 455.7C171.7 454.7 214.3 446.3 257.2 441.2C300 436 343 434 385.8 432.5C428.7 431 471.3 430 514.2 435.5C557 441 600 453 642.8 458C685.7 463 728.3 461 771.2 458.2C814 455.3 857 451.7 878.5 449.8L900 448L900 601L878.5 601C857 601 814 601 771.2 601C728.3 601 685.7 601 642.8 601C600 601 557 601 514.2 601C471.3 601 428.7 601 385.8 601C343 601 300 601 257.2 601C214.3 601 171.7 601 128.8 601C86 601 43 601 21.5 601L0 601Z" fill="#56759c"></path><path d="M0 497L21.5 498.7C43 500.3 86 503.7 128.8 500.8C171.7 498 214.3 489 257.2 486.2C300 483.3 343 486.7 385.8 489.8C428.7 493 471.3 496 514.2 495.8C557 495.7 600 492.3 642.8 489.3C685.7 486.3 728.3 483.7 771.2 484.5C814 485.3 857 489.7 878.5 491.8L900 494L900 601L878.5 601C857 601 814 601 771.2 601C728.3 601 685.7 601 642.8 601C600 601 557 601 514.2 601C471.3 601 428.7 601 385.8 601C343 601 300 601 257.2 601C214.3 601 171.7 601 128.8 601C86 601 43 601 21.5 601L0 601Z" fill="#4d698d"></path><path d="M0 538L21.5 537.7C43 537.3 86 536.7 128.8 536C171.7 535.3 214.3 534.7 257.2 534C300 533.3 343 532.7 385.8 528.7C428.7 524.7 471.3 517.3 514.2 514.5C557 511.7 600 513.3 642.8 515.8C685.7 518.3 728.3 521.7 771.2 522.2C814 522.7 857 520.3 878.5 519.2L900 518L900 601L878.5 601C857 601 814 601 771.2 601C728.3 601 685.7 601 642.8 601C600 601 557 601 514.2 601C471.3 601 428.7 601 385.8 601C343 601 300 601 257.2 601C214.3 601 171.7 601 128.8 601C86 601 43 601 21.5 601L0 601Z" fill="#455e7e"></path></svg>