<svg id="visual" viewBox="0 0 900 600" width="900" height="600" xmlns="http://www.w3.org/2000/svg" xmlns:xlink="http://www.w3.org/1999/xlink" version="1.1"><path d="M0 61L13.7 63C27.3 65 54.7 69 82 71C109.3 73 136.7 73 163.8 74C191 75 218 77 245.2 82C272.3 87 299.7 95 327 90C354.3 85 381.7 67 409 69C436.3 71 463.7 93 491 93C518.3 93 545.7 71 573 71C600.3 71 627.7 93 654.8 96C682 99 709 83 736.2 75C763.3 67 790.7 67 818 73C845.3 79 872.7 91 886.3 97L900 103L900 0L886.3 0C872.7 0 845.3 0 818 0C790.7 0 763.3 0 736.2 0C709 0 682 0 654.8 0C627.7 0 600.3 0 573 0C545.7 0 518.3 0 491 0C463.7 0 436.3 0 409 0C381.7 0 354.3 0 327 0C299.7 0 272.3 0 245.2 0C218 0 191 0 163.8 0C136.7 0 109.3 0 82 0C54.7 0 27.3 0 13.7 0L0 0Z" fill="#b48ead"></path><path d="M0 259L13.7 256C27.3 253 54.7 247 82 234C109.3 221 136.7 201 163.8 205C191 209 218 237 245.2 259C272.3 281 299.7 297 327 289C354.3 281 381.7 249 409 260C436.3 271 463.7 325 491 331C518.3 337 545.7 295 573 279C600.3 263 627.7 273 654.8 273C682 273 709 263 736.2 251C763.3 239 790.7 225 818 235C845.3 245 872.7 279 886.3 296L900 313L900 101L886.3 95C872.7 89 845.3 77 818 71C790.7 65 763.3 65 736.2 73C709 81 682 97 654.8 94C627.7 91 600.3 69 573 69C545.7 69 518.3 91 491 91C463.7 91 436.3 69 409 67C381.7 65 354.3 83 327 88C299.7 93 272.3 85 245.2 80C218 75 191 73 163.8 72C136.7 71 109.3 71 82 69C54.7 67 27.3 63 13.7 61L0 59Z" fill="#9780a0"></path><path d="M0 313L13.7 308C27.3 303 54.7 293 82 281C109.3 269 136.7 255 163.8 259C191 263 218 285 245.2 314C272.3 343 299.7 379 327 370C354.3 361 381.7 307 409 312C436.3 317 463.7 381 491 390C518.3 399 545.7 353 573 340C600.3 327 627.7 347 654.8 352C682 357 709 347 736.2 330C763.3 313 790.7 289 818 293C845.3 297 872.7 329 886.3 345L900 361L900 311L886.3 294C872.7 277 845.3 243 818 233C790.7 223 763.3 237 736.2 249C709 261 682 271 654.8 271C627.7 271 600.3 261 573 277C545.7 293 518.3 335 491 329C463.7 323 436.3 269 409 258C381.7 247 354.3 279 327 287C299.7 295 272.3 279 245.2 257C218 235 191 207 163.8 203C136.7 199 109.3 219 82 232C54.7 245 27.3 251 13.7 254L0 257Z" fill="#7b7290"></path><path d="M0 385L13.7 390C27.3 395 54.7 405 82 400C109.3 395 136.7 375 163.8 375C191 375 218 395 245.2 423C272.3 451 299.7 487 327 488C354.3 489 381.7 455 409 450C436.3 445 463.7 469 491 466C518.3 463 545.7 433 573 425C600.3 417 627.7 431 654.8 440C682 449 709 453 736.2 444C763.3 435 790.7 413 818 409C845.3 405 872.7 419 886.3 426L900 433L900 359L886.3 343C872.7 327 845.3 295 818 291C790.7 287 763.3 311 736.2 328C709 345 682 355 654.8 350C627.7 345 600.3 325 573 338C545.7 351 518.3 397 491 388C463.7 379 436.3 315 409 310C381.7 305 354.3 359 327 368C299.7 377 272.3 341 245.2 312C218 283 191 261 163.8 257C136.7 253 109.3 267 82 279C54.7 291 27.3 301 13.7 306L0 311Z" fill="#62647e"></path><path d="M0 601L13.7 601C27.3 601 54.7 601 82 601C109.3 601 136.7 601 163.8 601C191 601 218 601 245.2 601C272.3 601 299.7 601 327 601C354.3 601 381.7 601 409 601C436.3 601 463.7 601 491 601C518.3 601 545.7 601 573 601C600.3 601 627.7 601 654.8 601C682 601 709 601 736.2 601C763.3 601 790.7 601 818 601C845.3 601 872.7 601 886.3 601L900 601L900 431L886.3 424C872.7 417 845.3 403 818 407C790.7 411 763.3 433 736.2 442C709 451 682 447 654.8 438C627.7 429 600.3 415 573 423C545.7 431 518.3 461 491 464C463.7 467 436.3 443 409 448C381.7 453 354.3 487 327 486C299.7 485 272.3 449 245.2 421C218 393 191 373 163.8 373C136.7 373 109.3 393 82 398C54.7 403 27.3 393 13.7 388L0 383Z" fill="#4c566a"></path></svg>