<svg id="visual" viewBox="0 0 900 600" width="900" height="600" xmlns="http://www.w3.org/2000/svg" xmlns:xlink="http://www.w3.org/1999/xlink" version="1.1"><path d="M0 43L16.7 42C33.3 41 66.7 39 100 38C133.3 37 166.7 37 200 39C233.3 41 266.7 45 300 44C333.3 43 366.7 37 400 34C433.3 31 466.7 31 500 32C533.3 33 566.7 35 600 36C633.3 37 666.7 37 700 38C733.3 39 766.7 41 800 43C833.3 45 866.7 47 883.3 48L900 49L900 0L883.3 0C866.7 0 833.3 0 800 0C766.7 0 733.3 0 700 0C666.7 0 633.3 0 600 0C566.7 0 533.3 0 500 0C466.7 0 433.3 0 400 0C366.7 0 333.3 0 300 0C266.7 0 233.3 0 200 0C166.7 0 133.3 0 100 0C66.7 0 33.3 0 16.7 0L0 0Z" fill="#5e81ac"></path><path d="M0 79L16.7 75C33.3 71 66.7 63 100 62C133.3 61 166.7 67 200 71C233.3 75 266.7 77 300 74C333.3 71 366.7 63 400 61C433.3 59 466.7 63 500 64C533.3 65 566.7 63 600 63C633.3 63 666.7 65 700 65C733.3 65 766.7 63 800 65C833.3 67 866.7 73 883.3 76L900 79L900 47L883.3 46C866.7 45 833.3 43 800 41C766.7 39 733.3 37 700 36C666.7 35 633.3 35 600 34C566.7 33 533.3 31 500 30C466.7 29 433.3 29 400 32C366.7 35 333.3 41 300 42C266.7 43 233.3 39 200 37C166.7 35 133.3 35 100 36C66.7 37 33.3 39 16.7 40L0 41Z" fill="#678ab2"></path><path d="M0 163L16.7 155C33.3 147 66.7 131 100 127C133.3 123 166.7 131 200 141C233.3 151 266.7 163 300 160C333.3 157 366.7 139 400 131C433.3 123 466.7 125 500 124C533.3 123 566.7 119 600 120C633.3 121 666.7 127 700 133C733.3 139 766.7 145 800 152C833.3 159 866.7 167 883.3 171L900 175L900 77L883.3 74C866.7 71 833.3 65 800 63C766.7 61 733.3 63 700 63C666.7 63 633.3 61 600 61C566.7 61 533.3 63 500 62C466.7 61 433.3 57 400 59C366.7 61 333.3 69 300 72C266.7 75 233.3 73 200 69C166.7 65 133.3 59 100 60C66.7 61 33.3 69 16.7 73L0 77Z" fill="#7193b8"></path><path d="M0 199L16.7 193C33.3 187 66.7 175 100 174C133.3 173 166.7 183 200 191C233.3 199 266.7 205 300 202C333.3 199 366.7 187 400 180C433.3 173 466.7 171 500 168C533.3 165 566.7 161 600 161C633.3 161 666.7 165 700 171C733.3 177 766.7 185 800 192C833.3 199 866.7 205 883.3 208L900 211L900 173L883.3 169C866.7 165 833.3 157 800 150C766.7 143 733.3 137 700 131C666.7 125 633.3 119 600 118C566.7 117 533.3 121 500 122C466.7 123 433.3 121 400 129C366.7 137 333.3 155 300 158C266.7 161 233.3 149 200 139C166.7 129 133.3 121 100 125C66.7 129 33.3 145 16.7 153L0 161Z" fill="#7b9cbe"></path><path d="M0 229L16.7 225C33.3 221 66.7 213 100 211C133.3 209 166.7 213 200 221C233.3 229 266.7 241 300 238C333.3 235 366.7 217 400 210C433.3 203 466.7 207 500 205C533.3 203 566.7 195 600 195C633.3 195 666.7 203 700 209C733.3 215 766.7 219 800 225C833.3 231 866.7 239 883.3 243L900 247L900 209L883.3 206C866.7 203 833.3 197 800 190C766.7 183 733.3 175 700 169C666.7 163 633.3 159 600 159C566.7 159 533.3 163 500 166C466.7 169 433.3 171 400 178C366.7 185 333.3 197 300 200C266.7 203 233.3 197 200 189C166.7 181 133.3 171 100 172C66.7 173 33.3 185 16.7 191L0 197Z" fill="#81a1c1"></path><path d="M0 355L16.7 355C33.3 355 66.7 355 100 351C133.3 347 166.7 339 200 341C233.3 343 266.7 355 300 355C333.3 355 366.7 343 400 344C433.3 345 466.7 359 500 356C533.3 353 566.7 333 600 330C633.3 327 666.7 341 700 348C733.3 355 766.7 355 800 350C833.3 345 866.7 335 883.3 330L900 325L900 245L883.3 241C866.7 237 833.3 229 800 223C766.7 217 733.3 213 700 207C666.7 201 633.3 193 600 193C566.7 193 533.3 201 500 203C466.7 205 433.3 201 400 208C366.7 215 333.3 233 300 236C266.7 239 233.3 227 200 219C166.7 211 133.3 207 100 209C66.7 211 33.3 219 16.7 223L0 227Z" fill="#81a1c1"></path><path d="M0 403L16.7 401C33.3 399 66.7 395 100 388C133.3 381 166.7 371 200 375C233.3 379 266.7 397 300 398C333.3 399 366.7 383 400 383C433.3 383 466.7 399 500 396C533.3 393 566.7 371 600 368C633.3 365 666.7 381 700 387C733.3 393 766.7 389 800 382C833.3 375 866.7 365 883.3 360L900 355L900 323L883.3 328C866.7 333 833.3 343 800 348C766.7 353 733.3 353 700 346C666.7 339 633.3 325 600 328C566.7 331 533.3 351 500 354C466.7 357 433.3 343 400 342C366.7 341 333.3 353 300 353C266.7 353 233.3 341 200 339C166.7 337 133.3 345 100 349C66.7 353 33.3 353 16.7 353L0 353Z" fill="#7b9cbe"></path><path d="M0 469L16.7 467C33.3 465 66.7 461 100 454C133.3 447 166.7 437 200 437C233.3 437 266.7 447 300 445C333.3 443 366.7 429 400 430C433.3 431 466.7 447 500 447C533.3 447 566.7 431 600 431C633.3 431 666.7 447 700 455C733.3 463 766.7 463 800 456C833.3 449 866.7 435 883.3 428L900 421L900 353L883.3 358C866.7 363 833.3 373 800 380C766.7 387 733.3 391 700 385C666.7 379 633.3 363 600 366C566.7 369 533.3 391 500 394C466.7 397 433.3 381 400 381C366.7 381 333.3 397 300 396C266.7 395 233.3 377 200 373C166.7 369 133.3 379 100 386C66.7 393 33.3 397 16.7 399L0 401Z" fill="#7193b8"></path><path d="M0 505L16.7 502C33.3 499 66.7 493 100 485C133.3 477 166.7 467 200 466C233.3 465 266.7 473 300 471C333.3 469 366.7 457 400 460C433.3 463 466.7 481 500 480C533.3 479 566.7 459 600 459C633.3 459 666.7 479 700 489C733.3 499 766.7 499 800 491C833.3 483 866.7 467 883.3 459L900 451L900 419L883.3 426C866.7 433 833.3 447 800 454C766.7 461 733.3 461 700 453C666.7 445 633.3 429 600 429C566.7 429 533.3 445 500 445C466.7 445 433.3 429 400 428C366.7 427 333.3 441 300 443C266.7 445 233.3 435 200 435C166.7 435 133.3 445 100 452C66.7 459 33.3 463 16.7 465L0 467Z" fill="#678ab2"></path><path d="M0 601L16.7 601C33.3 601 66.7 601 100 601C133.3 601 166.7 601 200 601C233.3 601 266.7 601 300 601C333.3 601 366.7 601 400 601C433.3 601 466.7 601 500 601C533.3 601 566.7 601 600 601C633.3 601 666.7 601 700 601C733.3 601 766.7 601 800 601C833.3 601 866.7 601 883.3 601L900 601L900 449L883.3 457C866.7 465 833.3 481 800 489C766.7 497 733.3 497 700 487C666.7 477 633.3 457 600 457C566.7 457 533.3 477 500 478C466.7 479 433.3 461 400 458C366.7 455 333.3 467 300 469C266.7 471 233.3 463 200 464C166.7 465 133.3 475 100 483C66.7 491 33.3 497 16.7 500L0 503Z" fill="#5e81ac"></path></svg>