<svg id="visual" viewBox="0 0 900 600" width="900" height="600" xmlns="http://www.w3.org/2000/svg" xmlns:xlink="http://www.w3.org/1999/xlink" version="1.1"><path d="M0 25L13.7 37C27.3 49 54.7 73 82 86C109.3 99 136.7 101 163.8 96C191 91 218 79 245.2 69C272.3 59 299.7 51 327 48C354.3 45 381.7 47 409 45C436.3 43 463.7 37 491 35C518.3 33 545.7 35 573 46C600.3 57 627.7 77 654.8 75C682 73 709 49 736.2 46C763.3 43 790.7 61 818 73C845.3 85 872.7 91 886.3 94L900 97L900 0L886.3 0C872.7 0 845.3 0 818 0C790.7 0 763.3 0 736.2 0C709 0 682 0 654.8 0C627.7 0 600.3 0 573 0C545.7 0 518.3 0 491 0C463.7 0 436.3 0 409 0C381.7 0 354.3 0 327 0C299.7 0 272.3 0 245.2 0C218 0 191 0 163.8 0C136.7 0 109.3 0 82 0C54.7 0 27.3 0 13.7 0L0 0Z" fill="#1d1f21"></path><path d="M0 289L13.7 275C27.3 261 54.7 233 82 213C109.3 193 136.7 181 163.8 184C191 187 218 205 245.2 222C272.3 239 299.7 255 327 261C354.3 267 381.7 263 409 233C436.3 203 463.7 147 491 125C518.3 103 545.7 115 573 128C600.3 141 627.7 155 654.8 163C682 171 709 173 736.2 173C763.3 173 790.7 171 818 196C845.3 221 872.7 273 886.3 299L900 325L900 95L886.3 92C872.7 89 845.3 83 818 71C790.7 59 763.3 41 736.2 44C709 47 682 71 654.8 73C627.7 75 600.3 55 573 44C545.7 33 518.3 31 491 33C463.7 35 436.3 41 409 43C381.7 45 354.3 43 327 46C299.7 49 272.3 57 245.2 67C218 77 191 89 163.8 94C136.7 99 109.3 97 82 84C54.7 71 27.3 47 13.7 35L0 23Z" fill="#2a2d31"></path><path d="M0 349L13.7 330C27.3 311 54.7 273 82 251C109.3 229 136.7 223 163.8 226C191 229 218 241 245.2 255C272.3 269 299.7 285 327 303C354.3 321 381.7 341 409 323C436.3 305 463.7 249 491 221C518.3 193 545.7 193 573 195C600.3 197 627.7 201 654.8 209C682 217 709 229 736.2 239C763.3 249 790.7 257 818 279C845.3 301 872.7 337 886.3 355L900 373L900 323L886.3 297C872.7 271 845.3 219 818 194C790.7 169 763.3 171 736.2 171C709 171 682 169 654.8 161C627.7 153 600.3 139 573 126C545.7 113 518.3 101 491 123C463.7 145 436.3 201 409 231C381.7 261 354.3 265 327 259C299.7 253 272.3 237 245.2 220C218 203 191 185 163.8 182C136.7 179 109.3 191 82 211C54.7 231 27.3 259 13.7 273L0 287Z" fill="#373b41"></path><path d="M0 481L13.7 458C27.3 435 54.7 389 82 364C109.3 339 136.7 335 163.8 337C191 339 218 347 245.2 350C272.3 353 299.7 351 327 371C354.3 391 381.7 433 409 432C436.3 431 463.7 387 491 367C518.3 347 545.7 351 573 349C600.3 347 627.7 339 654.8 329C682 319 709 307 736.2 309C763.3 311 790.7 327 818 347C845.3 367 872.7 391 886.3 403L900 415L900 371L886.3 353C872.7 335 845.3 299 818 277C790.7 255 763.3 247 736.2 237C709 227 682 215 654.8 207C627.7 199 600.3 195 573 193C545.7 191 518.3 191 491 219C463.7 247 436.3 303 409 321C381.7 339 354.3 319 327 301C299.7 283 272.3 267 245.2 253C218 239 191 227 163.8 224C136.7 221 109.3 227 82 249C54.7 271 27.3 309 13.7 328L0 347Z" fill="#373b41"></path><path d="M0 517L13.7 496C27.3 475 54.7 433 82 409C109.3 385 136.7 379 163.8 381C191 383 218 393 245.2 403C272.3 413 299.7 423 327 446C354.3 469 381.7 505 409 499C436.3 493 463.7 445 491 421C518.3 397 545.7 397 573 393C600.3 389 627.7 381 654.8 369C682 357 709 341 736.2 342C763.3 343 790.7 361 818 391C845.3 421 872.7 463 886.3 484L900 505L900 413L886.3 401C872.7 389 845.3 365 818 345C790.7 325 763.3 309 736.2 307C709 305 682 317 654.8 327C627.7 337 600.3 345 573 347C545.7 349 518.3 345 491 365C463.7 385 436.3 429 409 430C381.7 431 354.3 389 327 369C299.7 349 272.3 351 245.2 348C218 345 191 337 163.8 335C136.7 333 109.3 337 82 362C54.7 387 27.3 433 13.7 456L0 479Z" fill="#2a2d31"></path><path d="M0 601L13.7 601C27.3 601 54.7 601 82 601C109.3 601 136.7 601 163.8 601C191 601 218 601 245.2 601C272.3 601 299.7 601 327 601C354.3 601 381.7 601 409 601C436.3 601 463.7 601 491 601C518.3 601 545.7 601 573 601C600.3 601 627.7 601 654.8 601C682 601 709 601 736.2 601C763.3 601 790.7 601 818 601C845.3 601 872.7 601 886.3 601L900 601L900 503L886.3 482C872.7 461 845.3 419 818 389C790.7 359 763.3 341 736.2 340C709 339 682 355 654.8 367C627.7 379 600.3 387 573 391C545.7 395 518.3 395 491 419C463.7 443 436.3 491 409 497C381.7 503 354.3 467 327 444C299.7 421 272.3 411 245.2 401C218 391 191 381 163.8 379C136.7 377 109.3 383 82 407C54.7 431 27.3 473 13.7 494L0 515Z" fill="#1d1f21"></path></svg>