<svg id="visual" viewBox="0 0 900 600" width="900" height="600" xmlns="http://www.w3.org/2000/svg" xmlns:xlink="http://www.w3.org/1999/xlink" version="1.1"><path d="M0 43L21.5 45C43 47 86 51 128.8 50C171.7 49 214.3 43 257.2 40C300 37 343 37 385.8 38C428.7 39 471.3 41 514.2 44C557 47 600 51 642.8 51C685.7 51 728.3 47 771.2 43C814 39 857 35 878.5 33L900 31L900 0L878.5 0C857 0 814 0 771.2 0C728.3 0 685.7 0 642.8 0C600 0 557 0 514.2 0C471.3 0 428.7 0 385.8 0C343 0 300 0 257.2 0C214.3 0 171.7 0 128.8 0C86 0 43 0 21.5 0L0 0Z" fill="#2e3440"></path><path d="M0 115L21.5 116C43 117 86 119 128.8 117C171.7 115 214.3 109 257.2 111C300 113 343 123 385.8 124C428.7 125 471.3 117 514.2 121C557 125 600 141 642.8 147C685.7 153 728.3 149 771.2 142C814 135 857 125 878.5 120L900 115L900 29L878.5 31C857 33 814 37 771.2 41C728.3 45 685.7 49 642.8 49C600 49 557 45 514.2 42C471.3 39 428.7 37 385.8 36C343 35 300 35 257.2 38C214.3 41 171.7 47 128.8 48C86 49 43 45 21.5 43L0 41Z" fill="#505f73"></path><path d="M0 301L21.5 295C43 289 86 277 128.8 273C171.7 269 214.3 273 257.2 273C300 273 343 269 385.8 266C428.7 263 471.3 261 514.2 268C557 275 600 291 642.8 290C685.7 289 728.3 271 771.2 259C814 247 857 241 878.5 238L900 235L900 113L878.5 118C857 123 814 133 771.2 140C728.3 147 685.7 151 642.8 145C600 139 557 123 514.2 119C471.3 115 428.7 123 385.8 122C343 121 300 111 257.2 109C214.3 107 171.7 113 128.8 115C86 117 43 115 21.5 114L0 113Z" fill="#738daa"></path><path d="M0 415L21.5 416C43 417 86 419 128.8 422C171.7 425 214.3 429 257.2 434C300 439 343 445 385.8 442C428.7 439 471.3 427 514.2 425C557 423 600 431 642.8 427C685.7 423 728.3 407 771.2 407C814 407 857 423 878.5 431L900 439L900 233L878.5 236C857 239 814 245 771.2 257C728.3 269 685.7 287 642.8 288C600 289 557 273 514.2 266C471.3 259 428.7 261 385.8 264C343 267 300 271 257.2 271C214.3 271 171.7 267 128.8 271C86 275 43 287 21.5 293L0 299Z" fill="#81a1c1"></path><path d="M0 475L21.5 474C43 473 86 471 128.8 474C171.7 477 214.3 485 257.2 489C300 493 343 493 385.8 491C428.7 489 471.3 485 514.2 485C557 485 600 489 642.8 485C685.7 481 728.3 469 771.2 471C814 473 857 489 878.5 497L900 505L900 437L878.5 429C857 421 814 405 771.2 405C728.3 405 685.7 421 642.8 425C600 429 557 421 514.2 423C471.3 425 428.7 437 385.8 440C343 443 300 437 257.2 432C214.3 427 171.7 423 128.8 420C86 417 43 415 21.5 414L0 413Z" fill="#738daa"></path><path d="M0 565L21.5 562C43 559 86 553 128.8 553C171.7 553 214.3 559 257.2 559C300 559 343 553 385.8 552C428.7 551 471.3 555 514.2 554C557 553 600 547 642.8 543C685.7 539 728.3 537 771.2 541C814 545 857 555 878.5 560L900 565L900 503L878.5 495C857 487 814 471 771.2 469C728.3 467 685.7 479 642.8 483C600 487 557 483 514.2 483C471.3 483 428.7 487 385.8 489C343 491 300 491 257.2 487C214.3 483 171.7 475 128.8 472C86 469 43 471 21.5 472L0 473Z" fill="#505f73"></path><path d="M0 601L21.5 601C43 601 86 601 128.8 601C171.7 601 214.3 601 257.2 601C300 601 343 601 385.8 601C428.7 601 471.3 601 514.2 601C557 601 600 601 642.8 601C685.7 601 728.3 601 771.2 601C814 601 857 601 878.5 601L900 601L900 563L878.5 558C857 553 814 543 771.2 539C728.3 535 685.7 537 642.8 541C600 545 557 551 514.2 552C471.3 553 428.7 549 385.8 550C343 551 300 557 257.2 557C214.3 557 171.7 551 128.8 551C86 551 43 557 21.5 560L0 563Z" fill="#2e3440"></path></svg>